<?xml version="1.0" encoding="UTF-8" standalone="no"?>
<svg
   width="83"
   height="30"
   version="1.1"
   id="svg9"
   sodipodi:docname="donate.svg"
   inkscape:version="1.1.2 (0a00cf5339, 2022-02-04)"
   xmlns:inkscape="http://www.inkscape.org/namespaces/inkscape"
   xmlns:sodipodi="http://sodipodi.sourceforge.net/DTD/sodipodi-0.dtd"
   xmlns="http://www.w3.org/2000/svg"
   xmlns:svg="http://www.w3.org/2000/svg">
  <defs
     id="defs13" />
  <sodipodi:namedview
     id="namedview11"
     pagecolor="#ffffff"
     bordercolor="#666666"
     borderopacity="1.0"
     inkscape:pageshadow="2"
     inkscape:pageopacity="0.0"
     inkscape:pagecheckerboard="0"
     showgrid="false"
     inkscape:zoom="5.6483349"
     inkscape:cx="-3.1867799"
     inkscape:cy="-15.845378"
     inkscape:window-width="1920"
     inkscape:window-height="1008"
     inkscape:window-x="1280"
     inkscape:window-y="0"
     inkscape:window-maximized="1"
     inkscape:current-layer="svg9" />
  <rect
     id="back"
     fill="#f6c915"
     x="1"
     y=".5"
     width="82"
     height="29"
     rx="4"
     style="fill:#0d1117;fill-opacity:1" />
  <svg
     height="20"
     aria-hidden="true"
     viewBox="0 0 16 16"
     version="1.1"
     width="20"
     data-view-component="true"
     class="octicon octicon-mark-github v-align-middle color-fg-default"
     id="svg5"
     style="fill:#ffffff;fill-opacity:1">
    <path
       d="m 13.579515,3.9284215 c 4.42,0 8,3.58 8,8.0000005 a 8.013,8.013 0 0 1 -5.45,7.59 c -0.4,0.08 -0.55,-0.17 -0.55,-0.38 0,-0.27 0.01,-1.13 0.01,-2.2 0,-0.75 -0.25,-1.23 -0.54,-1.48 1.78,-0.2 3.65,-0.88 3.65,-3.95 0,-0.88 -0.31,-1.5900005 -0.82,-2.1500005 0.08,-0.2 0.36,-1.02 -0.08,-2.12 0,0 -0.67,-0.22 -2.2,0.82 -0.64,-0.18 -1.32,-0.27 -2,-0.27 -0.68,0 -1.36,0.09 -2,0.27 -1.53,-1.03 -2.2,-0.82 -2.2,-0.82 -0.44,1.1 -0.16,1.92 -0.08,2.12 -0.51,0.56 -0.82,1.2800005 -0.82,2.1500005 0,3.06 1.86,3.75 3.64,3.95 -0.23,0.2 -0.44,0.55 -0.51,1.07 -0.46,0.21 -1.61,0.55 -2.33,-0.66 -0.15,-0.24 -0.6,-0.83 -1.23,-0.82 -0.67,0.01 -0.27,0.38 0.01,0.53 0.34,0.19 0.73,0.9 0.82,1.13 0.16,0.45 0.68,1.31 2.69,0.94 0,0.67 0.01,1.3 0.01,1.49 0,0.21 -0.15,0.45 -0.55,0.38 a 7.995,7.995 0 0 1 -5.47,-7.59 c 0,-4.4200005 3.58,-8.0000005 8,-8.0000005 z"
       id="path3"
       style="fill:#ffffff;fill-opacity:1" />
  </svg>
  <text
     fill="#1a171b"
     text-anchor="middle"
     font-family="'Helvetica Neue', Helvetica, Arial, sans-serif"
     font-weight="700"
     font-size="14px"
     x="53.519989"
     y="19.850266"
     id="text7"
     style="fill:#ffffff;fill-opacity:1">GitHub</text>
</svg>
